# xmcd
#
# Track frame offsets: 
#        150
#        17105
#        31535
#        44710
#        57510
#        72935
#        86182
#        105392
#        118890
#        133752
#        147617
#        164332
#        178077
#
# Disc length: 2707 seconds
#
# Revision: 0
# Processed by: cddbd v1.5.2PL0 Copyright (c) Steve Scherf et al.
# Submitted via: ExactAudioCopy v0.99pb4
#
DISCID=c10a910d
DTITLE=Mikael Anreot - Lonely blue boy
DYEAR=1991
DGENRE=Indie
TTITLE0=She's a lady
TTITLE1=Only one woman
TTITLE2=Lonely blue boy
TTITLE3=Reflections
TTITLE4=Upside down
TTITLE5=Dream a little dream of me
TTITLE6=He ain't heavy he's my brother
TTITLE7=Lve child
TTITLE8=Syspicion
TTITLE9=My cherie amour
TTITLE10=Only one women [extended mix]
TTITLE11=Only one woman [soft mix]
TTITLE12=She's a lady [extended edit]
EXTD=
EXTT0=
EXTT1=
EXTT2=
EXTT3=
EXTT4=
EXTT5=
EXTT6=
EXTT7=
EXTT8=
EXTT9=
EXTT10=
EXTT11=
EXTT12=
PLAYORDER=
